<svg width="23" height="20" viewBox="0 0 23 20" fill="none" xmlns="http://www.w3.org/2000/svg">
<path d="M21.91 18.4L11.81 0.53C11.721 0.373677 11.5933 0.242839 11.4392 0.150033C11.2851 0.0572269 11.1098 0.00556461 10.93 0C10.7518 0.00129782 10.5772 0.050188 10.4242 0.141611C10.2713 0.233035 10.1455 0.36367 10.06 0.52L0.239993 18.52C0.152224 18.672 0.106018 18.8445 0.106018 19.02C0.106018 19.1955 0.152224 19.368 0.239993 19.52C0.328854 19.666 0.453641 19.7867 0.602445 19.8708C0.751248 19.9548 0.919103 19.9993 1.08999 20V20L21.02 19.85C21.1945 19.8489 21.3657 19.8022 21.5166 19.7145C21.6674 19.6268 21.7927 19.5011 21.88 19.35C21.9634 19.2066 22.0098 19.0446 22.0151 18.8788C22.0203 18.7129 21.9842 18.5484 21.91 18.4ZM11 6C11.2652 6 11.5196 6.10536 11.7071 6.29289C11.8946 6.48043 12 6.73478 12 7C12 7.26522 11.8946 7.51957 11.7071 7.70711C11.5196 7.89464 11.2652 8 11 8C10.7348 8 10.4804 7.89464 10.2929 7.70711C10.1053 7.51957 9.99999 7.26522 9.99999 7C9.99999 6.73478 10.1053 6.48043 10.2929 6.29289C10.4804 6.10536 10.7348 6 11 6V6ZM11.88 17H11C10.7827 16.9966 10.5725 16.9225 10.4011 16.789C10.2297 16.6555 10.1065 16.4698 10.05 16.26C9.99061 16.135 9.95986 15.9984 9.95999 15.86V10.66C9.69478 10.6414 9.4478 10.5183 9.27339 10.3176C9.09898 10.1169 9.01143 9.85522 9.02999 9.59C9.04856 9.32478 9.17172 9.0778 9.37238 8.9034C9.57305 8.72899 9.83478 8.64143 10.1 8.66H11C11.2652 8.66 11.5196 8.76536 11.7071 8.95289C11.8946 9.14043 12 9.39478 12 9.66V15C12.2475 15.0249 12.4769 15.1411 12.6433 15.326C12.8097 15.5109 12.9012 15.7512 12.9 16C12.9 16.133 12.8735 16.2647 12.822 16.3874C12.7705 16.51 12.6951 16.6211 12.6001 16.7143C12.5051 16.8074 12.3925 16.8806 12.2688 16.9297C12.1452 16.9788 12.013 17.0027 11.88 17Z" fill="#0037FB"/>
</svg>
