<svg width="12" height="20" viewBox="0 0 12 20" fill="none" xmlns="http://www.w3.org/2000/svg">
<path d="M6.20305 0.561C6.17605 0.346 5.82305 0.346 5.79705 0.561C4.91405 7.668 0.399048 9.133 0.399048 14.073C0.399048 17.126 2.96305 19.6 6.00005 19.6C9.03605 19.6 11.6 17.125 11.6 14.073C11.6 9.133 7.08605 7.668 6.20305 0.561V0.561ZM5.35005 8.418C5.29105 8.637 5.22705 8.862 5.16105 9.096C4.76005 10.52 4.30505 12.135 4.30505 14.002C4.30505 15.014 3.70705 15.373 3.14905 15.373C2.99658 15.3723 2.84574 15.3417 2.70513 15.2827C2.56452 15.2238 2.4369 15.1377 2.32956 15.0294C2.22221 14.9211 2.13725 14.7928 2.07951 14.6517C2.02177 14.5106 1.99239 14.3595 1.99305 14.207C1.99305 12 3.05505 10.558 3.99305 9.287C4.28805 8.889 4.56505 8.512 4.79005 8.137C4.89305 7.965 5.17005 7.973 5.29605 8.143C5.35505 8.223 5.37505 8.325 5.35005 8.418V8.418Z" fill="#0037FB"/>
</svg>
