<svg width="24" height="30" viewBox="0 0 24 30" fill="none" xmlns="http://www.w3.org/2000/svg">
<path d="M23.6633 24.5265C23.8228 25.0832 23.4861 25.6214 22.9143 25.7218L17.7234 26.6377C17.1524 26.738 16.65 26.3481 16.6097 25.7695L15.7931 14.304C15.7528 13.7257 16.187 13.1706 16.756 13.0703L19.1803 12.642C19.7494 12.5416 20.3485 12.9147 20.5077 13.4734L23.6633 24.5265Z" fill="#0037FB"/>
<path d="M18.5857 12.0738C17.0989 5.72402 13.53 3.23691 10.5598 2.29609C10.4698 1.02591 9.41134 0.0198549 8.11868 0.0198549C7.68837 0.0198549 7.28526 0.131421 6.93374 0.327368L0 0C0 0 0.599072 1.56756 1.84787 1.62562C2.58765 1.6621 4.40249 1.74647 5.76095 1.81035C5.73376 1.91437 5.71132 2.01946 5.69535 2.12908C4.24883 2.65974 2.50973 3.30088 1.75896 3.57754C0.37243 4.08855 0.254208 6.07133 0.254208 6.07133L6.13885 3.9047C6.58426 4.5178 7.30501 4.91893 8.11964 4.91893C8.98218 4.91893 9.74157 4.46986 10.1775 3.7931C13.678 4.93208 15.9892 7.80264 17.0659 12.34L18.5857 12.0738ZM8.11967 3.38331C7.61621 3.38331 7.20554 2.97264 7.20554 2.46918C7.20554 1.96572 7.61621 1.55698 8.11967 1.55698C8.62313 1.55698 9.0338 1.9657 9.0338 2.46918C9.0338 2.97285 8.62314 3.38331 8.11967 3.38331Z" fill="#0037FB"/>
<path d="M13.1126 9.50108C13.1126 7.89899 12.8783 6.82736 11.1935 6.55262C10.0142 6.36035 9.84911 5.78567 9.84911 5.20819V4.99067C9.35687 5.32904 8.76168 5.52887 8.11863 5.52887C7.47559 5.52887 6.88127 5.32926 6.38815 4.99067V5.20819C6.38815 5.78484 6.22307 6.36032 5.04372 6.55262C3.35727 6.82734 3.12464 7.89877 3.12464 9.50108C3.12464 9.62193 3.12097 28.4615 3.12097 28.4615C3.12097 29.3109 3.80915 30 4.65942 30H11.5771C12.4265 30 13.1156 29.3118 13.1156 28.4615C13.1167 28.4607 13.1128 9.62206 13.1128 9.50108H13.1126ZM11.2538 21.9825C10.3763 24.2643 8.57528 24.1536 8.57528 24.1536C10.8205 21.0112 7.94903 19.228 7.94903 19.228C7.94903 19.228 8.45055 20.1467 7.27317 21.5792C6.44169 22.5861 7.35561 24.1517 7.35561 24.1517C6.50987 24.1649 4.72414 22.7511 4.72414 20.8284C4.72414 18.9057 6.01311 17.6447 6.01311 17.6447C6.26905 18.1754 6.60655 18.4481 6.60655 18.4481C5.98593 15.3009 8.5274 14.2895 8.5274 14.2895C8.13745 16.0988 8.86577 17.042 9.65516 17.9223C9.70479 17.446 9.7376 16.7194 9.582 16.0763C9.58222 16.0774 12.358 19.1064 11.2538 21.9825L11.2538 21.9825Z" fill="#0037FB"/>
</svg>
