<svg width="22" height="29" viewBox="0 0 22 29" fill="none" xmlns="http://www.w3.org/2000/svg">
<path d="M11 15.261V4C11 2.93913 10.5786 1.92172 9.82843 1.17157C9.07828 0.421427 8.06087 0 7 0C5.93913 0 4.92172 0.421427 4.17157 1.17157C3.42143 1.92172 3 2.93913 3 4V15.261C1.77702 16.1126 0.857723 17.3322 0.375923 18.7425C-0.105877 20.1527 -0.125038 21.6799 0.32123 23.1018C0.767498 24.5236 1.6559 25.766 2.85714 26.648C4.05837 27.53 5.50974 28.0056 7 28.0056C8.49026 28.0056 9.94163 27.53 11.1429 26.648C12.3441 25.766 13.2325 24.5236 13.6788 23.1018C14.125 21.6799 14.1059 20.1527 13.6241 18.7425C13.1423 17.3322 12.223 16.1126 11 15.261V15.261ZM7 26C5.9016 25.9973 4.83465 25.633 3.96398 24.9633C3.09332 24.2937 2.46739 23.356 2.1829 22.295C1.89841 21.2341 1.97118 20.109 2.38999 19.0936C2.80879 18.0782 3.55032 17.2289 4.5 16.677C4.65216 16.5891 4.77849 16.4628 4.86627 16.3106C4.95405 16.1583 5.00017 15.9857 5 15.81V14H6C6.26522 14 6.51957 13.8946 6.70711 13.7071C6.89464 13.5196 7 13.2652 7 13C7 12.7348 6.89464 12.4804 6.70711 12.2929C6.51957 12.1054 6.26522 12 6 12H5V10H6C6.26522 10 6.51957 9.89464 6.70711 9.70711C6.89464 9.51957 7 9.26522 7 9C7 8.73478 6.89464 8.48043 6.70711 8.29289C6.51957 8.10536 6.26522 8 6 8H5V6H6C6.26522 6 6.51957 5.89464 6.70711 5.70711C6.89464 5.51957 7 5.26522 7 5C7 4.73478 6.89464 4.48043 6.70711 4.29289C6.51957 4.10536 6.26522 4 6 4H5C5 3.46957 5.21071 2.96086 5.58579 2.58579C5.96086 2.21071 6.46957 2 7 2C7.53043 2 8.03914 2.21071 8.41421 2.58579C8.78929 2.96086 9 3.46957 9 4V15.81C8.99983 15.9857 9.04595 16.1583 9.13373 16.3106C9.22151 16.4628 9.34784 16.5891 9.5 16.677C10.4497 17.2289 11.1912 18.0782 11.61 19.0936C12.0288 20.109 12.1016 21.2341 11.8171 22.295C11.5326 23.356 10.9067 24.2937 10.036 24.9633C9.16535 25.633 8.0984 25.9973 7 26ZM7 18C6.40666 18 5.82664 18.1759 5.33329 18.5056C4.83994 18.8352 4.45542 19.3038 4.22836 19.8519C4.0013 20.4001 3.94189 21.0033 4.05764 21.5853C4.1734 22.1672 4.45912 22.7018 4.87868 23.1213C5.29824 23.5409 5.83279 23.8266 6.41473 23.9424C6.99667 24.0581 7.59987 23.9987 8.14805 23.7716C8.69623 23.5446 9.16476 23.1601 9.49441 22.6667C9.82405 22.1734 10 21.5933 10 21C10 20.2044 9.68393 19.4413 9.12132 18.8787C8.55871 18.3161 7.79565 18 7 18ZM7 22C6.80222 22 6.60888 21.9414 6.44443 21.8315C6.27998 21.7216 6.15181 21.5654 6.07612 21.3827C6.00043 21.2 5.98063 20.9989 6.01921 20.8049C6.0578 20.6109 6.15304 20.4327 6.29289 20.2929C6.43275 20.153 6.61093 20.0578 6.80491 20.0192C6.99889 19.9806 7.19996 20.0004 7.38268 20.0761C7.56541 20.1518 7.72159 20.28 7.83147 20.4444C7.94135 20.6089 8 20.8022 8 21C8 21.2652 7.89464 21.5196 7.70711 21.7071C7.51957 21.8946 7.26522 22 7 22ZM22 5C22 5.26522 21.8946 5.51957 21.7071 5.70711C21.5196 5.89464 21.2652 6 21 6H18V7H20C20.2652 7 20.5196 7.10536 20.7071 7.29289C20.8946 7.48043 21 7.73478 21 8C21 8.26522 20.8946 8.51957 20.7071 8.70711C20.5196 8.89464 20.2652 9 20 9H18V11C18 11.2652 17.8946 11.5196 17.7071 11.7071C17.5196 11.8946 17.2652 12 17 12C16.7348 12 16.4804 11.8946 16.2929 11.7071C16.1054 11.5196 16 11.2652 16 11V5C16 4.73478 16.1054 4.48043 16.2929 4.29289C16.4804 4.10536 16.7348 4 17 4H21C21.2652 4 21.5196 4.10536 21.7071 4.29289C21.8946 4.48043 22 4.73478 22 5ZM15.02 4C15.02 4.19735 14.9616 4.39029 14.8521 4.55452C14.7427 4.71874 14.5871 4.84691 14.405 4.92288C14.2228 4.99886 14.0223 5.01924 13.8286 4.98145C13.6349 4.94367 13.4567 4.84942 13.3164 4.71057C13.1762 4.57171 13.0802 4.39447 13.0404 4.20115C13.0007 4.00783 13.0191 3.80709 13.0933 3.6242C13.1674 3.4413 13.2941 3.28444 13.4572 3.17337C13.6203 3.0623 13.8127 3.00197 14.01 3H14.02C14.2852 3 14.5396 3.10536 14.7271 3.29289C14.9146 3.48043 15.02 3.73478 15.02 4Z" fill="#0037FB"/>
</svg>
